<svg xmlns="http://www.w3.org/2000/svg" enable-background="new 0 0 487.932 490.305" width="487.9320068359375" height="490.30499267578125" style=""><rect id="backgroundrect" width="100%" height="100%" x="0" y="0" fill="none" stroke="none"/>
 
 
 
 
 
 
 
 
 
 
 
 
 
 
 
 
 
 
 
 
 
 
 
 
 
 
 
 
 
 
 
 
 
<g class="currentLayer" style=""><title>Layer 1</title><path d="m312.361,227.316c6.822,25.457.109,50.505-18.525,69.141-18.637,18.636-43.684,25.347-69.141,18.525s-43.793-25.157-50.614-50.614-.109-50.504 18.526-69.14 43.684-25.347 69.141-18.526 43.793,25.157 50.613,50.614" fill="none" stroke="#000" stroke-linejoin="round" stroke-miterlimit="10" stroke-width=".5892" id="svg_1"/><path d="m218.92 231.81-193.9-111.95 193.9 111.95zm38.326-10.27 111.94-193.9-111.94 193.9zm10.27 38.327 193.9 111.94-193.9-111.94zm-38.327 10.27-111.94 193.9 111.94-193.9z" fill="#fffcfc" fill-rule="evenodd" id="svg_2" class=""/><path d="m379.78 209.25c20.199 75.379-24.586 152.95-99.965 173.15s-152.95-24.588-173.15-99.967 24.587-152.95 99.967-173.15 152.95 24.588 173.15 99.967z" fill="none" stroke="#000" stroke-dasharray="7.0504,7.0504" stroke-linejoin="round" stroke-miterlimit="10" stroke-width="3.5252" id="svg_4"/><path d="m381.57 215.93c-3.76 1.007-7.627-1.226-8.635-4.985s1.227-7.627 4.984-8.635 7.629 1.226 8.637 4.985-1.226 7.627-4.986 8.635z" fill-rule="evenodd" id="svg_5"/><path d="m381.57 215.93c-3.76 1.007-7.627-1.226-8.635-4.985s1.227-7.627 4.984-8.635 7.629 1.226 8.637 4.985-1.226 7.627-4.986 8.635z" fill="none" stroke="#000" stroke-miterlimit="10" stroke-width="1.7626" id="svg_6"/><path d="m273.14 384.19c-1.008-3.76 1.225-7.628 4.984-8.635s7.627 1.226 8.635 4.985-1.227 7.627-4.984 8.635-7.629-1.227-8.635-4.985z" fill-rule="evenodd" id="svg_7"/><path d="m273.14 384.19c-1.008-3.76 1.225-7.628 4.984-8.635s7.627 1.226 8.635 4.985-1.227 7.627-4.984 8.635-7.629-1.227-8.635-4.985z" fill="none" stroke="#000" stroke-miterlimit="10" stroke-width="1.7626" id="svg_8"/><path d="m104.88 275.76c3.759-1.008 7.628 1.226 8.635 4.985s-1.226 7.628-4.985 8.635-7.627-1.227-8.635-4.985 1.226-7.628 4.985-8.635z" fill-rule="evenodd" id="svg_9"/><path d="m104.88 275.76c3.759-1.008 7.628 1.226 8.635 4.985s-1.226 7.628-4.985 8.635-7.627-1.227-8.635-4.985 1.226-7.628 4.985-8.635z" fill="none" stroke="#000" stroke-miterlimit="10" stroke-width="1.7626" id="svg_10"/><path d="m213.3 107.5c1.007 3.759-1.226 7.628-4.985 8.635s-7.628-1.226-8.635-4.985 1.226-7.628 4.985-8.635 7.628 1.226 8.635 4.985z" fill-rule="evenodd" id="svg_11"/><path d="m213.3 107.5c1.007 3.759-1.226 7.628-4.985 8.635s-7.628-1.226-8.635-4.985 1.226-7.628 4.985-8.635 7.628 1.226 8.635 4.985z" fill="none" stroke="#000" stroke-miterlimit="10" stroke-width="1.7626" id="svg_12"/><path d="m365.77 213.01c18.125 67.645-22.064 137.26-89.711 155.38-67.644 18.126-137.26-22.064-155.38-89.709s22.064-137.26 89.709-155.38c67.645-18.124 137.26 22.065 155.38 89.71z" fill="none" stroke="#000" stroke-linejoin="round" stroke-miterlimit="10" stroke-width="3.1636" id="svg_13"/><path d="m355.6 215.73-95.327 39.957 13.061 102.53-39.957-95.326-102.53 13.06 95.326-39.956-13.06-102.53 39.956 95.326 102.53-13.06z" fill="#6e6e6e" fill-rule="evenodd" id="svg_14"/><path d="m399.15 335.87-148.59-62.635-97.363 128.54 62.635-148.59-128.54-97.364 148.59 62.636 97.363-128.54-62.635 148.59 128.54 97.362z" fill-rule="evenodd" id="svg_15"/><path d="m399.15 335.87-148.59-62.635-97.363 128.54 62.635-148.59-128.54-97.364 148.59 62.636 97.363-128.54-62.635 148.59 128.54 97.362z" fill="none" stroke="#000" stroke-linejoin="round" stroke-miterlimit="10" stroke-width="2.0905" id="svg_16" class=""/><path d="m239.678,163.812c.413-1.651 7.447-1.369 7.074.124-1.711,12.55-.924,16.492-.924,16.492l-5.504-.111c.25,1.221.994-8.51-.646-16.505m41.49,9.218c1.184-1.224 7.135,2.538 6.064,3.644-7.758,10.013-9.047,13.82-9.047,13.82l-4.711-2.848c-.394,1.184 5.116-6.872 7.694-14.616m31.322,28.728c1.637-.468 4.91,5.765 3.43,6.188-11.725,4.793-14.744,7.445-14.744,7.445l-2.656-4.822c-.932.828 7.867-3.393 13.97-8.811m12.762,40.54c1.652.413 1.369,7.447-.123,7.074-12.551-1.711-16.492-.924-16.492-.924l.111-5.504c-1.223.251 8.51.994 16.504-.646m-9.217,41.491c1.223,1.183-2.539,7.134-3.645,6.063-10.014-7.757-13.82-9.046-13.82-9.046l2.848-4.711c-1.184-.393 6.873,5.117 14.617,7.694m-28.728,31.322c.469,1.637-5.766,4.909-6.188,3.43-4.793-11.725-7.445-14.744-7.445-14.744l4.82-2.656c-.828-.933 3.395,7.867 8.813,13.97m-40.541,12.763c-.412,1.651-7.447,1.368-7.074-.125 1.711-12.55.924-16.491.924-16.491l5.505.111c-.251-1.222-.996,8.509.645,16.505m-41.491-9.219c-1.183,1.225-7.134-2.538-6.064-3.645 7.757-10.013 9.046-13.819 9.046-13.819l4.711,2.848c.395-1.184-5.115,6.872-7.693,14.616m-31.322-28.727c-1.637.468-4.909-5.766-3.43-6.188 11.724-4.793 14.744-7.445 14.744-7.445l2.656,4.822c.933-.829-7.866,3.393-13.97,8.811m-12.762-40.541c-1.652-.413-1.369-7.447.124-7.074 12.55,1.711 16.491.924 16.491.924l-.111,5.504c1.222-.251-8.509-.995-16.504.646m9.218-41.491c-1.224-1.184 2.538-7.134 3.645-6.064 10.013,7.757 13.82,9.046 13.82,9.046l-2.848,4.711c1.183.394-6.873-5.115-14.617-7.693m28.728-31.322c-.468-1.637 5.765-4.909 6.188-3.43 4.793,11.725 7.445,14.744 7.445,14.744l-4.822,2.656c.829.933-3.393-7.866-8.811-13.97" fill="none" stroke="#000" stroke-linejoin="round" stroke-miterlimit="10" stroke-width="1.8528" id="svg_17"/><path d="m255.79 249.38 15.326-3.643 104.7 72.939-120.02-69.296z" fill="#fff" fill-rule="evenodd" id="svg_18"/><path d="m240.86 257.23 3.333 15.769-72.629 104.26 69.296-120.03z" fill="#fff" fill-rule="evenodd" id="svg_19"/><path d="m230.65 242.3-15.811 3.304-104.22-72.601 120.03 69.297z" fill="#fff" fill-rule="evenodd" id="svg_20"/><path d="m246.76 233.27-2.743-16.614 72.04-103.41-69.297 120.02z" fill="#fff" fill-rule="evenodd" id="svg_21"/><path d="m263.55 240.4c3.006 11.22-3.66 22.765-14.879 25.771s-22.765-3.66-25.771-14.879 3.66-22.766 14.879-25.771 22.765 3.66 25.771 14.879z" fill="#fffcfc" fill-rule="evenodd" id="svg_22"/><path d="m263.55 240.4c3.006 11.22-3.66 22.765-14.879 25.771s-22.765-3.66-25.771-14.879 3.66-22.766 14.879-25.771 22.765 3.66 25.771 14.879z" fill="none" stroke="#000" stroke-linejoin="round" stroke-miterlimit="10" stroke-width="2.9459" id="svg_23"/><path d="m374.418,4.676 6.162,24.349c2.99-3.565-.623-8.059-.924-12.084-1.279-3.911-1.541-8.587-3.438-12.033-.622-.025-2.909-2.468-1.8-.232zm15.5,8.395c-.107,1.432.42,1.075 1.434.573-.196.115-1.864-1.476-1.434-.573zm-25.613,6.877c-2.006.267 1.017,1.494 0,0z" fill="#fff6f6" id="svg_28" class=""/><path d="m471.283,364.919c-.418,4.705-4.443,8.243-6.227,12.478-.967,1.646-1.822,3.634-3.688,4.398 3.736,3.987 4.639-2.608 6.668-4.995l6.002-10.396c-.829-.413-2.143-1.373-2.755-1.485zm13.385,7.855c.563.753.117,4.121 1.061,1.738 1.757-1.012-1.266-2.216-1.061-1.738zm-8.662,4.694c-1.117.507-2.746.205-1.703,1.737-.022,3.165 1.615-1.91 1.703-1.737zm2.307,10.771c-1.201.648-2.531.954-3.869,1.104 2.613,2.335 3.286.71 3.869-1.104z" fill="#fff6f6" id="svg_31"/><path d="m228.648,238.814c-2.859,11.584 3.745,20.13 19.799,24.446 .158.198-11.731,1.009-17.577-4.849-6.973-6.987-3.973-20.27-2.222-19.597z" fill="#888" fill-rule="evenodd" id="svg_32"/><path d="m255.98 258.4c7.461-10.233 3.227-26.195-8.465-31.199-0.057-0.247 7.238 2.292 11.855 9.161 6.651 9.897-1.301 23.541-3.39 22.038z" fill="#888" fill-rule="evenodd" id="svg_33"/></g></svg>