<?xml version="1.0" ?><svg data-name="Слой 1" id="Слой_1" viewBox="0 0 96 96" xmlns="http://www.w3.org/2000/svg"><defs><style>
      .cls-1 {
        fill: #ad1b1b;
      }

      .cls-2 {
        fill: #cb2027;
      }

      .cls-3 {
        fill: none;
        stroke: #fff;
        stroke-linecap: round;
        stroke-linejoin: round;
        stroke-width: 3px;
      }

      .cls-4 {
        fill: #fff;
      }
    </style></defs><title/><path class="cls-1" d="M92,48v.13A44,44,0,1,1,47.87,4H48c1.06,0,2.11,0,3.16.12a42.89,42.89,0,0,1,5.12.67,43.39,43.39,0,0,1,8.1,2.37A44.13,44.13,0,0,1,88.79,31.47a43.22,43.22,0,0,1,2.43,8.24h0a44,44,0,0,1,.67,5.17C92,45.92,92,47,92,48Z"/><path class="cls-2" d="M91,44.5v.12A39.53,39.53,0,1,1,51.38,5h.12c1,0,1.89,0,2.84.11a38.38,38.38,0,0,1,4.59.6,39.33,39.33,0,0,1,5.45,1.45A44.13,44.13,0,0,1,88.79,31.47a38.33,38.33,0,0,1,1.51,5.59h0a39.22,39.22,0,0,1,.6,4.64C91,42.63,91,43.57,91,44.5Z"/><path class="cls-3" d="M74.66,21.93a36.47,36.47,0,0,1,3,3.52"/><path class="cls-3" d="M58,12a38.11,38.11,0,0,1,11.78,5.76"/><path class="cls-4" d="M48,27a21,21,0,0,0-8.36,40.35c0-.37,0-.77-.07-1.22A14.35,14.35,0,0,1,40,61.9s1.64-7.06,2.21-9.4.25-1.65,0-2.75-1.68-5.69,2.5-7.46,4.58,3.59,3.29,7.12-1.88,7.12,2.29,7.35,6.3-4.82,6.53-11-5.29-8-8.23-8.18-6.64.63-9.53,5c-2.57,3.88,0,9.11.29,9.43a1,1,0,0,1,.15.87s-.22,1-.5,1.86-1.19.5-2.47-.47-3.09-2.82-2.82-8.47,6-10.83,13-11.76a13.34,13.34,0,0,1,13.9,6.6c2.56,4.32,1.12,11.42-1.15,14.87a10.89,10.89,0,0,1-8.21,4.89,6.39,6.39,0,0,1-5.69-2.56s-.88,3-1.32,5.12a21.24,21.24,0,0,1-2.4,5.22A21,21,0,1,0,48,27Z"/></svg>